HIERARCHY
ROOT Hips
{
	OFFSET	0.00	0.00	0.00
	CHANNELS 6 Xposition Yposition Zposition Zrotation Xrotation Yrotation
	JOINT LeftUpLeg
	{
		OFFSET	 0.126116	-0.014019	-0.065224
		CHANNELS 3 Zrotation Xrotation Yrotation
		JOINT LeftLeg
		{
			OFFSET	 0.000000	 0.000000	 0.569914
			CHANNELS 3 Zrotation Xrotation Yrotation
			JOINT LeftFoot
			{
				OFFSET	 0.000000	 0.000000	 0.544423
				CHANNELS 3 Zrotation Xrotation Yrotation
				JOINT LeftToeBase
				{
					OFFSET	 0.000000	 0.000000	 0.207117
					CHANNELS 3 Zrotation Xrotation Yrotation
					End Site
					{
						OFFSET	 0.000000	 0.000000	 0.207117
					}
				}
			}
		}
	}
	JOINT RightUpLeg
	{
		OFFSET	-0.124023	-0.008373	-0.065224
		CHANNELS 3 Zrotation Xrotation Yrotation
		JOINT RightLeg
		{
			OFFSET	 0.000000	 0.000000	 0.570047
			CHANNELS 3 Zrotation Xrotation Yrotation
			JOINT RightFoot
			{
				OFFSET	 0.000000	 0.000000	 0.544354
				CHANNELS 3 Zrotation Xrotation Yrotation
				JOINT RightToeBase
				{
					OFFSET	 0.000000	 0.000000	 0.207540
					CHANNELS 3 Zrotation Xrotation Yrotation
					End Site
					{
						OFFSET	 0.000000	 0.000000	 0.207540
					}
				}
			}
		}
	}
	JOINT Spine
	{
		OFFSET	 0.000184	-0.007763	 0.117403
		CHANNELS 3 Zrotation Xrotation Yrotation
		JOINT Spine1
		{
			OFFSET	 0.000000	 0.000000	 0.137269
			CHANNELS 3 Zrotation Xrotation Yrotation
			JOINT Spine2
			{
				OFFSET	 0.000000	 0.000000	 0.156879
				CHANNELS 3 Zrotation Xrotation Yrotation
				JOINT LeftShoulder
				{
					OFFSET	 0.080501	-0.002496	 0.160144
					CHANNELS 3 Zrotation Xrotation Yrotation
					JOINT LeftArm
					{
						OFFSET	 0.000000	 0.000000	 0.164363
						CHANNELS 3 Zrotation Xrotation Yrotation
						JOINT LeftForeArm
						{
							OFFSET	 0.000000	 0.000000	 0.364576
							CHANNELS 3 Zrotation Xrotation Yrotation
							JOINT LeftHand
							{
								OFFSET	 0.000000	 0.000000	 0.360812
								CHANNELS 3 Zrotation Xrotation Yrotation
								JOINT LeftHandIndex1
								{
									OFFSET	 0.000000	 0.000000	 0.086006
									CHANNELS 3 Zrotation Xrotation Yrotation
									JOINT LeftHandIndex2
									{
										OFFSET	 0.000000	 0.000000	 0.047237
										CHANNELS 3 Zrotation Xrotation Yrotation
										JOINT LeftHandIndex3
										{
											OFFSET	-0.004284	-0.000551	 0.038165
											CHANNELS 3 Zrotation Xrotation Yrotation
											End Site
											{
												OFFSET	-0.004284	-0.000551	 0.038165
											}
										}
									}
								}
							}
						}
					}
				}
				JOINT Neck
				{
					OFFSET	 0.000000	 0.000000	 0.176489
					CHANNELS 3 Zrotation Xrotation Yrotation
					JOINT Head
					{
						OFFSET	 0.000000	-0.001747	 0.077940
						CHANNELS 3 Zrotation Xrotation Yrotation
						End Site
						{
							OFFSET	 0.000000	-0.001747	 0.077940
						}
					}
				}
				JOINT RightShoulder
				{
					OFFSET	-0.080363	 0.000306	 0.159706
					CHANNELS 3 Zrotation Xrotation Yrotation
					JOINT RightArm
					{
						OFFSET	 0.000000	 0.000000	 0.164196
						CHANNELS 3 Zrotation Xrotation Yrotation
						JOINT RightForeArm
						{
							OFFSET	 0.000000	 0.000000	 0.365611
							CHANNELS 3 Zrotation Xrotation Yrotation
							JOINT RightHand
							{
								OFFSET	 0.000000	 0.000000	 0.360648
								CHANNELS 3 Zrotation Xrotation Yrotation
								JOINT RightHandIndex1
								{
									OFFSET	 0.000000	 0.000000	 0.069977
									CHANNELS 3 Zrotation Xrotation Yrotation
									JOINT RightHandIndex2
									{
										OFFSET	 0.000000	 0.000000	 0.052305
										CHANNELS 3 Zrotation Xrotation Yrotation
										JOINT RightHandIndex3
										{
											OFFSET	 0.009002	-0.000782	 0.042196
											CHANNELS 3 Zrotation Xrotation Yrotation
											End Site
											{
												OFFSET	 0.009002	-0.000782	 0.042196
											}
										}
									}
								}
							}
						}
					}
				}
			}
		}
	}
}
MOTION
Frames:    7
Frame Time: 0.03333334
-0.396609	 0.190912	 1.222355	-176.105000	 12.977070	 13.843110	 39.797430	-17.275900	 172.384000	-8.839815	-44.508140	-6.620533	 152.100600	 76.455280	-163.530800	-2.385833	 28.452760	 0.000004	-35.110050	-38.899600	 149.226900	 5.585147	-50.609130	 3.141751	-17.256990	 76.377620	 36.483110	 2.384659	 28.388700	-0.000001	 93.112490	-24.214560	 21.047790	 55.623890	 20.922880	 3.469695	-21.944630	-7.044794	-23.382280	-91.776180	 78.527360	 180.000000	 1.234049	 36.648300	-34.025120	-4.518929	 31.020080	-83.859120	 22.550550	-38.473830	 10.893250	-4.130319	 21.525730	 0.991547	-5.167930	 0.731704	 3.519349	-1.378229	 35.397820	-2.634230	-18.354600	 7.154292	 7.650825	-27.102210	-21.412930	-16.728120	 89.782070	 78.203820	-180.000000	 58.484250	 8.528532	-15.810840	-2.306355	 20.917140	 71.985410	-57.259790	 21.779310	-128.365600	 5.716227	 19.173190	-3.685159	 5.027444	 0.246877	-9.377972	-2.350882	 35.473990	 5.254307
-0.400891	 0.197549	 1.223924	-175.549600	 12.841830	 13.207920	 40.463280	-15.835590	 172.752500	-8.665509	-43.065930	-6.329698	 150.647400	 76.855490	-161.863900	-2.385833	 28.452760	 0.000004	-34.496210	-38.745290	 150.579900	 5.843410	-50.498780	 3.336501	-16.591300	 76.760480	 35.299630	 2.384659	 28.388700	-0.000001	 91.542950	-23.422250	 20.886910	 53.927160	 20.438480	 4.577553	-21.473060	-6.686900	-23.251480	-91.776220	 78.527360	-180.000000	 0.032468	 34.927390	-30.749060	-4.313673	 30.364760	-84.144670	 24.618770	-38.849370	 12.277830	-4.130319	 21.525730	 0.991547	-5.167930	 0.731704	 3.519349	-1.378229	 35.397820	-2.634230	-17.991300	 7.543123	 7.599030	-26.994630	-21.934270	-16.837780	 89.782070	 78.203870	-180.000000	 69.119060	 1.371333	-14.654510	 0.837406	 20.309870	 63.833290	-69.438050	 22.600020	-112.392100	 5.716227	 19.173190	-3.685159	 5.027444	 0.246877	-9.377972	-2.350882	 35.473990	 5.254307
-0.404292	 0.203374	 1.225402	-175.051900	 12.676100	 12.574280	 40.986490	-14.463350	 173.058000	-8.564171	-41.750500	-6.105337	 149.441300	 77.149920	-160.438900	-2.385833	 28.452760	 0.000004	-33.825250	-38.640290	 151.860900	 6.021392	-50.437150	 3.471093	-15.680360	 77.073290	 33.986610	 2.384659	 28.388700	-0.000001	 90.167620	-22.648170	 20.843160	 52.445380	 19.976500	 5.508267	-21.050520	-6.361047	-23.101320	-91.776210	 78.527350	-180.000000	-0.946399	 33.504250	-27.921380	-4.047219	 29.780910	-84.577370	 26.473830	-39.182550	 13.554560	-4.130319	 21.525730	 0.991547	-5.167930	 0.731704	 3.519349	-1.378229	 35.397820	-2.634230	-17.695880	 7.810449	 7.661351	-26.871890	-22.242220	-17.071310	 89.782160	 78.203870	 179.999900	 75.511730	-4.387705	-11.720520	 3.417830	 19.430840	 56.948660	-78.484060	 21.649880	-101.438100	 5.716227	 19.173190	-3.685159	 5.027444	 0.246877	-9.377972	-2.350882	 35.473990	 5.254307
-0.407421	 0.209253	 1.226998	-174.574800	 12.514850	 11.603860	 41.402520	-12.661560	 173.556300	-8.615831	-40.196400	-5.952771	 148.801600	 77.099540	-159.381100	-2.385833	 28.452760	 0.000004	-32.601410	-38.879210	 153.612500	 5.978239	-50.601840	 3.445865	-13.197730	 77.391400	 31.272670	 2.384659	 28.388700	-0.000001	 88.946360	-21.576490	 21.076470	 50.969170	 19.597700	 6.243814	-20.670150	-6.051710	-22.863230	-91.776210	 78.527380	-180.000000	-1.936738	 31.954210	-25.018580	-3.557308	 29.197860	-85.489420	 28.374990	-39.615980	 14.961950	-4.130319	 21.525730	 0.991547	-5.167930	 0.731704	 3.519349	-1.378229	 35.397820	-2.634230	-17.549150	 7.729436	 8.174476	-26.653170	-21.878420	-17.847980	 89.782130	 78.203890	 180.000000	 80.323200	-8.829935	-8.928102	 4.709487	 18.776390	 53.461780	-86.031000	 22.139590	-93.463310	 5.716227	 19.173190	-3.685159	 5.027444	 0.246877	-9.377972	-2.350882	 35.473990	 5.254307
-0.409880	 0.214498	 1.228410	-174.092600	 12.280570	 10.820950	 41.705170	-11.027780	 173.757100	-8.677382	-38.834100	-5.823947	 148.851800	 77.070050	-159.074700	-2.385833	 28.452760	 0.000004	-31.480700	-38.877240	 155.172500	 5.953683	-50.763000	 3.434731	-11.074380	 77.835770	 28.871840	 2.384659	 28.388700	-0.000001	 87.654860	-20.593120	 21.036610	 49.655000	 19.285930	 6.966273	-20.320140	-5.843885	-22.632160	-91.776160	 78.527350	 180.000000	-2.774770	 30.702620	-22.321280	-3.019913	 28.693130	-86.556710	 30.127180	-40.041360	 16.294290	-4.130319	 21.525730	 0.991547	-5.167930	 0.731704	 3.519349	-1.378229	 35.397820	-2.634230	-17.372620	 7.673587	 8.501961	-26.422980	-21.693790	-18.250460	 89.782110	 78.203870	 180.000000	 82.979100	-12.889890	-9.352677	 3.474267	 19.322670	 57.454550	-91.914860	 25.337380	-86.679550	 5.716227	 19.173190	-3.685159	 5.027444	 0.246877	-9.377972	-2.350882	 35.473990	 5.254307
-0.411904	 0.219189	 1.229623	-173.505800	 11.859530	 10.364900	 41.958490	-9.626856	 173.508200	-8.741536	-37.626510	-5.711037	 149.490400	 77.073840	-159.457400	-2.385833	 28.452760	 0.000004	-30.542730	-38.486070	 156.439300	 5.970039	-50.807560	 3.449613	-9.504354	 78.518730	 26.861930	 2.384659	 28.388700	-0.000001	 86.038540	-19.734690	 20.484320	 48.404700	 18.956660	 7.872969	-19.962400	-5.779090	-22.435450	-91.776210	 78.527380	-180.000000	-3.546059	 30.001000	-19.746770	-2.562844	 28.297670	-87.542120	 31.869410	-40.604770	 17.680060	-4.130319	 21.525730	 0.991547	-5.167930	 0.731704	 3.519349	-1.378229	 35.397820	-2.634230	-17.079380	 7.676652	 8.316451	-26.123830	-21.992230	-17.569450	 89.782130	 78.203890	 180.000000	 84.181220	-16.543280	-9.980711	 1.899432	 19.534000	 61.706930	-96.408820	 27.558040	-80.697190	 5.716227	 19.173190	-3.685159	 5.027444	 0.246877	-9.377972	-2.350882	 35.473990	 5.254307
-0.413640	 0.223224	 1.230719	-172.943000	 11.435150	 9.966554	 42.234070	-8.343060	 173.267500	-8.805916	-36.400280	-5.591050	 149.294400	 77.163860	-159.056000	-2.385833	 28.452760	 0.000004	-29.645960	-38.180510	 157.569500	 5.945701	-50.828000	 3.431703	-7.539989	 79.058490	 24.490490	 2.384659	 28.388700	-0.000001	 84.495800	-19.000140	 20.022760	 47.250000	 18.532090	 8.782665	-19.569260	-5.593556	-22.274750	-91.776200	 78.527400	-180.000000	-4.344126	 29.615110	-17.502080	-2.194371	 27.940890	-88.371580	 33.550390	-41.155050	 19.041560	-4.130319	 21.525730	 0.991547	-5.167930	 0.731704	 3.519349	-1.378229	 35.397820	-2.634230	-16.790590	 7.677211	 8.192005	-25.839310	-22.218620	-17.044060	 89.782110	 78.203890	 180.000000	 83.992070	-19.363130	-9.327227	 1.679417	 19.144170	 61.894390	-99.135600	 27.681720	-76.892870	 5.716227	 19.173190	-3.685159	 5.027444	 0.246877	-9.377972	-2.350882	 35.473990	 5.254307
